<svg width="1440" height="1024" viewBox="0 0 1440 1024" fill="none" xmlns="http://www.w3.org/2000/svg">
<path d="M701.004 275.68C707.039 257.355 732.961 257.355 738.996 275.68L782.379 407.405C785.08 415.607 792.74 421.149 801.375 421.149H941.183C960.623 421.149 968.635 446.079 952.835 457.404L840.195 538.144C833.09 543.236 830.116 552.353 832.85 560.655L875.984 691.626C882.037 710.005 861.063 725.411 845.336 714.138L731.652 632.65C724.686 627.657 715.314 627.657 708.348 632.65L594.664 714.138C578.937 725.411 557.963 710.005 564.016 691.626L607.15 560.655C609.884 552.353 606.91 543.236 599.805 538.144L487.165 457.404C471.365 446.079 479.377 421.149 498.817 421.149H638.625C647.26 421.149 654.92 415.607 657.621 407.405L701.004 275.68Z" fill="#8A90AA"/>
</svg>
