<svg width="1244" height="493" viewBox="0 0 1244 493" fill="none" xmlns="http://www.w3.org/2000/svg">
<path d="M889.901 61.0914C930.037 22.8516 983.75 45.1581 1005.59 61.0914C1038.17 -4.50956 1101.61 42.9603 1158 61.0914C1284 187.596 1254 379.129 1172 451C1147.45 472.52 1081.73 476.592 1056.35 480.164C925.079 496.976 854.093 449.533 835.008 423.71C821.433 466.153 716.369 490.053 593.008 492.938C494.319 495.245 457.055 432.913 450.76 401.459C394.883 418.903 311.12 386.52 266.938 371.686L176.809 408.876C100.745 465.898 31.9125 418.899 22.8328 408.876C-19.626 362.007 -7.85986 230.121 100.745 217.265C236.501 201.194 231.779 296.382 235.911 281.135C239.216 268.938 268.768 276.053 283.13 281.135C298.713 246.192 330.547 245.423 344.516 249.406C333.301 244.461 317.601 228.555 344.516 204.491C371.431 180.426 409.639 183.201 425.379 187.596C397.52 161.883 430.691 128.808 450.76 115.484C495.618 99.3312 518.244 127.159 523.95 143.093C532.449 131.225 546.772 138.148 552.872 143.093C544.411 91.9962 562.552 -8.05364 702.794 0.517355C878.096 11.2311 839.73 112.188 848.584 102.71C855.667 95.128 870.029 99.5508 876.325 102.71L889.901 61.0914Z" fill="#45638D"/>
</svg>
