<svg width="1440" height="1024" viewBox="0 0 1440 1024" fill="none" xmlns="http://www.w3.org/2000/svg">
<path d="M987.901 252.091C1028.04 213.852 1081.75 236.158 1103.59 252.091C1136.17 186.49 1199.61 233.96 1256 252.091C1382 378.596 1352 570.129 1270 642C1245.45 663.52 1179.73 667.592 1154.35 671.164C1023.08 687.976 952.093 640.533 933.008 614.71C919.433 657.153 814.369 681.053 691.008 683.938C592.319 686.245 555.055 623.913 548.76 592.459C492.883 609.903 409.12 577.52 364.938 562.686L274.809 599.876C198.745 656.898 129.912 609.899 120.833 599.876C78.374 553.007 90.1401 421.121 198.745 408.265C334.501 392.194 329.779 487.382 333.911 472.135C337.216 459.938 366.768 467.053 381.13 472.135C396.713 437.192 428.547 436.423 442.516 440.406C431.301 435.461 415.601 419.555 442.516 395.491C469.431 371.426 507.639 374.201 523.379 378.596C495.52 352.883 528.691 319.808 548.76 306.484C593.618 290.331 616.244 318.159 621.95 334.093C630.449 322.225 644.772 329.148 650.872 334.093C642.411 282.996 660.552 182.946 800.794 191.517C976.096 202.231 937.73 303.188 946.584 293.71C953.667 286.128 968.029 290.551 974.325 293.71L987.901 252.091Z" fill="#3A4B78"/>
</svg>
