<svg width="1274" height="642" viewBox="0 0 1274 642" fill="none" xmlns="http://www.w3.org/2000/svg">
<path d="M423.839 79.5551C385.076 29.758 333.203 58.8063 312.112 79.5551C280.646 -5.87248 197.978 62.3838 168.336 79.5551C-33.6639 186.34 -29.6637 380.716 54.3361 503C138.336 625.284 238.577 620.633 263.089 625.284C389.865 647.178 458.421 585.396 476.852 551.769C489.963 607.039 591.429 638.163 710.566 641.919C805.876 644.924 841.865 563.753 847.945 522.792C901.908 545.508 1028.3 595.019 1102.18 611.332C1176.06 627.645 1238.99 565.542 1261.22 532.451C1279.84 456.253 1290.86 299.671 1185.98 282.929C1054.87 262.001 1059.43 385.957 1055.44 366.103C1052.25 350.219 1023.71 359.485 1009.83 366.103C994.786 320.599 964.042 319.597 950.551 324.784C961.382 318.345 976.545 297.632 950.551 266.294C924.558 234.956 887.657 238.57 872.456 244.293C899.362 210.809 867.326 167.737 847.945 150.387C804.622 129.352 782.771 165.591 777.26 186.34C769.052 170.885 755.219 179.9 749.329 186.34C757.499 119.8 739.98 -10.4877 604.54 0.673715C435.24 14.6255 472.292 146.094 463.741 133.752C456.901 123.879 443.03 129.638 436.95 133.752L423.839 79.5551Z" fill="#2b3a61"/>
</svg>
