<svg width="64" height="64" viewBox="0 0 64 64" fill="none" xmlns="http://www.w3.org/2000/svg">
<path d="M8.78125 42.0244C11.8136 38.4555 21.6687 32.6064 22.8058 31.6151C22.8058 33.8952 32.2818 38.7529 31.0499 38.4555C29.8181 38.1581 23.7534 44.3046 19.0154 48.964C14.2774 53.6235 9.86845 53.4252 8.21269 51.839C6.33743 50.0425 5.74892 45.5934 8.78125 42.0244Z" fill="#6E57E0"/>
<path d="M37.4679 21.1373C37.8309 17.7541 34.3974 13.1778 32.5218 11.2876C32.8546 10.4226 37.5442 7.52719 41.2796 6.72046C46.9801 5.48935 51.229 6.11051 55.8912 9.79605C61.1282 13.9361 62.6231 19.0242 62.7885 25.9429C62.9638 33.2742 58.0693 41.1607 55.8912 43.2431C54.9473 40.0906 47.3602 37.1881 47.3602 37.1881C47.3602 37.1881 45.9081 37.7071 47.3602 36.7075C49.1753 35.458 53.2448 29.2151 51.7164 24.309C50.8634 21.5707 49.8165 19.788 47.3602 18.544C43.7699 16.7257 39.5553 19.8558 37.4679 21.1373Z" fill="#6E57E0"/>
<path d="M23.7128 18.5742C25.2634 18.0775 27.0679 18.4443 27.7933 19.3537C28.0351 19.5648 28.4835 20.815 29.0175 21.6922C30.3807 23.9318 32.8713 26.1741 33.37 26.71C33.8687 27.2459 35.8797 28.349 38.584 30.169C41.2884 31.9889 43.526 34.1638 43.526 34.1638C43.526 34.1638 47.6518 36.6484 51.7324 38.7432C54.9968 40.4191 56.4476 43.079 56.765 44.1995C57.173 44.9141 57.563 46.8595 55.8582 48.9251C53.7273 51.5071 50.6442 51.1661 48.7853 50.2892C46.9264 49.4123 41.7333 46.2242 41.7333 46.2242L36.7872 42.62L31.6925 38.7432C31.6925 38.7432 25.3975 35.1713 22.9874 32.6048C20.6752 30.1427 20.7204 24.9562 20.7204 24.9562C20.7204 24.9562 21.213 19.3751 23.7128 18.5742Z" fill="#6E57E0"/>
<path d="M31.4228 45.3383C27.1391 45.0308 24.6161 43.8006 23.8901 43.2239L15.7222 50.4323C18.7776 52.8031 26.7035 57.4293 33.9639 56.9679C41.2243 56.5066 46.9116 51.6497 49.2107 49.6634L39.3184 43.8967C38.4714 44.5054 35.7064 45.6459 31.4228 45.3383Z" fill="#6E57E0"/>
<path d="M36.79 16.4809C38.564 20.9342 38.4208 27.6745 36.79 29.5522C33.9585 27.7837 30.0714 23.9742 28.8036 22.1515C27.1672 18.4993 25.5667 18.275 24.7196 18.4993C19.7707 14.7954 17.6608 15.8246 14.6431 18.4993C12.4308 20.46 11.875 23.0095 11.875 25.7522C11.875 29.9157 14.1137 35.0911 15.4145 37.0454C10.3322 40.3613 8.92551 42.716 7.83923 44.6418C7.71822 45.0583 6.82277 44.5457 4.20903 39.1634C3.06382 36.8051 0.694982 30.9882 1.03261 22.9204C1.30211 16.4809 3.92974 11.7373 9.29131 8.21524C14.5513 4.75989 23.3167 6.24395 25.0826 6.77356C29.8899 8.21524 34.836 11.5757 36.79 16.4809Z" fill="#6E57E0"/>
</svg>
