<svg width="1500" height="1500" viewBox="0 0 1500 1500" fill="none" xmlns="http://www.w3.org/2000/svg">
<g clip-path="url(#clip0_66_351)">
<path d="M788 966C757.333 999.333 747.2 1078.8 952 1130C926.666 1132 883.599 1142.8 914 1170C952 1204 1054 1152 1078 1130" stroke="#8A90AA" stroke-width="25" stroke-linecap="round"/>
<path d="M444 936C469.333 908.666 532.8 858 584 874C645.553 893.235 747.806 966.12 808.913 955.652M808.913 955.652C811.342 955.236 813.706 954.688 816 954C864 939.6 831.275 949.101 808.913 955.652Z" stroke="#8A90AA" stroke-width="25" stroke-linecap="round"/>
<path d="M274 250C247.334 274.667 192.4 331.6 186 362C178 400 188 462 196 504C202.4 537.6 178.667 603.333 166 632C168.667 656.667 184 701.6 224 684C266.667 692 370 690 442 618C400.667 672.667 315.6 801.6 306 880C296.4 958.4 327.333 1004.67 344 1018C376.667 1036 442 1051.6 442 970C445.333 968 432 910 432 922" stroke="#8A90AA" stroke-width="25" stroke-linecap="round"/>
<path d="M407 191.352C430.333 190.019 487.4 191.752 529 209.352C581 231.352 681 254.352 693 259.352C705 264.352 922 367.352 954 400.352C986 433.352 1063 472.352 1114 536.352C1154.8 587.552 1191.67 676.352 1205 714.352L1244 831.352C1248 866.685 1263.2 948.152 1292 991.352C1328 1045.35 1333.75 1111.35 1310 1149.35C1293.33 1176.02 1243.6 1233.35 1178 1249.35C1112.4 1265.35 1108 1222.69 1114 1199.35C1127.33 1188.69 1147.6 1162.15 1122 1141.35C1090 1115.35 1008 1045.35 1000 1003.35C992 961.352 960 917.352 1010 857.352" stroke="#8A90AA" stroke-width="25" stroke-linecap="round"/>
<path d="M406 250C411.334 218 404.8 157.2 336 170C267.2 182.8 280.667 244.666 296 274" stroke="#8A90AA" stroke-width="25" stroke-linecap="round"/>
<path d="M591 540C565 564.333 519.6 627.2 546 684C572.4 740.8 617.667 763.667 637 768C670.667 772.667 734.2 759.8 719 671C747 665.667 809.8 639 837 575" stroke="#8A90AA" stroke-width="25" stroke-linecap="round"/>
<path d="M232 628C225.6 612.8 184.667 625.666 165 634C169.8 690.8 216.333 688.333 239 680C239.333 669 238.4 643.2 232 628Z" fill="#8A90AA" stroke="#8A90AA" stroke-width="25" stroke-linecap="round"/>
<path d="M265.999 252C252.666 235.333 218.399 212 187.999 252C157.599 292 183.333 312.666 199.999 318" stroke="#8A90AA" stroke-width="25" stroke-linecap="round"/>
<path d="M302 494C314.667 501.333 342 511.6 350 494" stroke="#8A90AA" stroke-width="25" stroke-linecap="round"/>
<path d="M460.918 608.05C464.812 602.35 463.347 594.572 457.647 590.678C451.946 586.784 444.168 588.249 440.274 593.949L460.918 608.05ZM433.785 647.772L460.918 608.05L440.274 593.949L413.141 633.671L433.785 647.772Z" fill="#8A90AA"/>
<path d="M355.381 870.358C374.493 985.211 588.319 935.647 593.557 932.904C606.01 916.814 615.301 846.448 618.391 813.276C619.813 772.937 605.567 691.724 537.206 689.584C468.845 687.444 453.952 749.001 455.051 780.046C364.104 775.142 350.71 838.211 355.381 870.358Z" fill="#8A90AA"/>
</g>
<defs>
<clipPath id="clip0_66_351">
<rect width="1500" height="1500" fill="white"/>
</clipPath>
</defs>
</svg>
